<svg xmlns="http://www.w3.org/2000/svg" xmlns:xlink="http://www.w3.org/1999/xlink">

    <symbol id="01d" viewBox="0 0 100 100">
        <title>01d</title>
        <path d="M50,28.125 C37.9394531,28.125 28.125,37.9394531 28.125,50 C28.125,62.0605469 37.9394531,71.875 50,71.875 C62.0605469,71.875 71.875,62.0605469 71.875,50 C71.875,37.9394531 62.0605469,28.125 50,28.125 Z M50,65.625 C41.3695313,65.625 34.375,58.6304687 34.375,50 C34.375,41.3695313 41.3695313,34.375 50,34.375 C58.6304687,34.375 65.625,41.3695313 65.625,50 C65.625,58.6304687 58.6304687,65.625 50,65.625 Z M50,21.875 C51.7251953,21.875 53.125,20.4751953 53.125,18.75 L53.125,12.5 C53.125,10.7748047 51.7251953,9.375 50,9.375 C48.2748047,9.375 46.875,10.7748047 46.875,12.5 L46.875,18.75 C46.875,20.4751953 48.2748047,21.875 50,21.875 Z M50,78.125 C48.2748047,78.125 46.875,79.5248047 46.875,81.25 L46.875,87.5 C46.875,89.2251953 48.2748047,90.625 50,90.625 C51.7251953,90.625 53.125,89.2251953 53.125,87.5 L53.125,81.25 C53.125,79.5248047 51.7251953,78.125 50,78.125 Z M74.3042969,30.1107422 L78.7232422,25.6917969 C79.9439453,24.4710937 79.9439453,22.4935547 78.7232422,21.2728516 C77.5025391,20.0521484 75.525,20.0521484 74.3042969,21.2728516 L69.8853516,25.6917969 C68.6646484,26.9125 68.6646484,28.8900391 69.8853516,30.1107422 C71.1058594,31.3314453 73.0835938,31.3314453 74.3042969,30.1107422 Z M25.6957031,69.8894531 L21.2767578,74.3083984 C20.0560547,75.5289063 20.0560547,77.5064453 21.2767578,78.7271484 C22.4974609,79.9478516 24.475,79.9478516 25.6957031,78.7271484 L30.1146484,74.3083984 C31.3353516,73.0835938 31.3353516,71.1099609 30.1146484,69.8894531 C28.8941406,68.6685547 26.9164062,68.6644531 25.6957031,69.8894531 Z M21.875,50 C21.875,48.2748047 20.4751953,46.875 18.75,46.875 L12.5,46.875 C10.7748047,46.875 9.375,48.2748047 9.375,50 C9.375,51.7251953 10.7748047,53.125 12.5,53.125 L18.75,53.125 C20.4751953,53.125 21.875,51.7251953 21.875,50 Z M87.5,46.875 L81.25,46.875 C79.5248047,46.875 78.125,48.2748047 78.125,50 C78.125,51.7251953 79.5248047,53.125 81.25,53.125 L87.5,53.125 C89.2251953,53.125 90.625,51.7251953 90.625,50 C90.625,48.2748047 89.2251953,46.875 87.5,46.875 Z M25.6916016,30.1107422 C26.9125,31.3314453 28.8900391,31.3314453 30.1105469,30.1107422 C31.3314453,28.8900391 31.3314453,26.9125 30.1105469,25.6917969 L25.6916016,21.2728516 C24.4708984,20.0521484 22.4935547,20.0521484 21.2726563,21.2728516 C20.0519531,22.4935547 20.0519531,24.4710937 21.2726563,25.6917969 L25.6916016,30.1107422 Z M74.3083984,69.8851562 C73.0835937,68.6644531 71.1099609,68.6644531 69.8894531,69.8851562 C68.6685547,71.1058594 68.6646484,73.0833984 69.8894531,74.3041016 L74.3083984,78.7230469 C75.5289062,79.94375 77.5064453,79.94375 78.7271484,78.7230469 C79.9478516,77.5023437 79.9478516,75.525 78.7271484,74.3041016 L74.3083984,69.8851562 Z"></path>
    </symbol>

    <symbol id="01n" viewBox="0 0 100 100">
        <title>01n</title>
        <path d="M68.3304688,67.0214844 C58.5890625,76.7707031 42.7283203,76.7707031 32.9789063,67.0214844 C23.2296875,57.2720703 23.2296875,41.4111328 32.9789063,31.6658203 C35.5587891,29.0902344 38.7039063,27.1248047 42.3210938,25.8431641 C43.4605469,25.4443359 44.7220703,25.7333984 45.5681641,26.5837891 C46.4228516,27.4382813 46.7117188,28.6996094 46.3089844,29.8308594 C43.859375,36.7400391 45.5277344,44.21875 50.6544922,49.3458984 C55.7734375,54.4685547 63.2523438,56.1330078 70.1695313,53.6916016 C71.3007813,53.2888672 72.5662109,53.5777344 73.4166016,54.4322266 C74.2712891,55.2785156 74.5560547,56.5439453 74.153125,57.6792969 C72.8794922,61.2964844 70.9101563,64.4416016 68.3304688,67.0214844 Z M37.3978516,36.0847656 C30.0857422,43.396875 30.0857422,55.2945313 37.3978516,62.6025391 C45.2103516,70.4191406 58.5160156,69.7152344 65.3275391,61.0074219 C58.3042969,61.446875 51.3871094,58.9119141 46.2357422,53.7644531 C41.084375,48.6171875 38.5535156,41.6998047 38.9927734,34.6767578 C38.4314453,35.1164063 37.8982422,35.584375 37.3978516,36.0847656 Z"></path>
    </symbol>

    <symbol id="02d" viewBox="0 0 100 100">
        <title>02d</title>
        <path d="M40.625,12.5 C42.3501953,12.5 43.75,11.1001953 43.75,9.375 L43.75,3.125 C43.75,1.39980469 42.3501953,0 40.625,0 C38.8998047,0 37.5,1.39980469 37.5,3.125 L37.5,9.375 C37.5,11.1001953 38.8998047,12.5 40.625,12.5 Z M64.9292969,20.7357422 L69.3482422,16.3167969 C70.56875,15.0960938 70.56875,13.1185547 69.3482422,11.8978516 C68.1275391,10.6771484 66.15,10.6771484 64.9292969,11.8978516 L60.5103516,16.3167969 C59.2896484,17.5375 59.2896484,19.5150391 60.5103516,20.7357422 C61.7308594,21.9564453 63.7085937,21.9564453 64.9292969,20.7357422 Z M3.125,43.75 L9.375,43.75 C11.1001953,43.75 12.5,42.3501953 12.5,40.625 C12.5,38.8998047 11.1001953,37.5 9.375,37.5 L3.125,37.5 C1.39980469,37.5 0,38.8998047 0,40.625 C0,42.3501953 1.39980469,43.75 3.125,43.75 Z M68.75,40.625 C68.75,42.3501953 70.1498047,43.75 71.875,43.75 L78.125,43.75 C79.8501953,43.75 81.25,42.3501953 81.25,40.625 C81.25,38.8998047 79.8501953,37.5 78.125,37.5 L71.875,37.5 C70.1498047,37.5 68.75,38.8998047 68.75,40.625 Z M16.3166016,20.7357422 C17.5375,21.9564453 19.5150391,21.9564453 20.7355469,20.7357422 C21.9564453,19.5150391 21.9564453,17.5375 20.7355469,16.3167969 L16.3166016,11.8978516 C15.0958984,10.6771484 13.1185547,10.6771484 11.8976563,11.8978516 C10.6769531,13.1185547 10.6769531,15.0960938 11.8976563,16.3167969 L16.3166016,20.7357422 Z M78.125,50 C77.0875,50 76.0621094,50.0732422 75.040625,50.2197266 C71.7650391,45.7519531 67.3992188,42.3421875 62.4511719,40.1611328 C62.1990234,28.3203125 52.5269531,18.75 40.625,18.75 C28.5644531,18.75 18.75,28.5644531 18.75,40.625 C18.75,44.0308594 19.5964844,47.2167969 20.9960938,50.0855469 C9.35058594,50.5615234 0,60.1195313 0,71.875 C0,83.9355469 9.81445312,93.75 21.875,93.75 C24.5484375,93.75 27.1648437,93.2617188 29.6306641,92.3177734 C35.2863281,97.2494141 42.4804688,100 50,100 C57.5277344,100 64.7134766,97.2494141 70.3693359,92.3177734 C72.8351562,93.2617188 75.4515625,93.75 78.125,93.75 C90.1855469,93.75 100,83.9355469 100,71.875 C100,59.8144531 90.1855469,50 78.125,50 Z M40.625,25 C48.4007813,25 54.7972656,30.6966797 55.9976562,38.1347656 C54.0404297,37.7441406 52.0427734,37.5 50,37.5 C41.0277344,37.5 32.7148437,41.3695313 26.8798828,47.9003906 C25.7203125,45.7193359 25,43.2699219 25,40.625 C25,31.9945313 31.9945313,25 40.625,25 Z M78.125,87.5 C74.7802734,87.5 71.6960938,86.4257812 69.1527344,84.6353516 C64.5671875,90.1611328 57.7390625,93.75 50,93.75 C42.2607422,93.75 35.4328125,90.1611328 30.8472656,84.6353516 C28.3082031,86.4257812 25.2197266,87.5 21.875,87.5 C13.2445312,87.5 6.25,80.5054688 6.25,71.875 C6.25,63.2445313 13.2445312,56.25 21.875,56.25 C23.3886719,56.25 24.8167969,56.5347656 26.1962891,56.9416016 C26.7455078,57.0962891 27.303125,57.2183594 27.8197266,57.4339844 C28.6742188,55.7617188 29.7484375,54.2316406 30.940625,52.7953125 C35.50625,47.3023437 42.2972656,43.75 50,43.75 C51.9775391,43.75 53.8738281,44.0347656 55.7128906,44.4744141 C57.7757813,44.9625 59.725,45.703125 61.5398438,46.6796875 C66.0888672,49.0966797 69.8242188,52.8402344 72.1759766,57.4341797 C74.0113281,56.6773437 76.0173828,56.25 78.125,56.25 C86.7554688,56.25 93.75,63.2445313 93.75,71.875 C93.75,80.5054688 86.7554688,87.5 78.125,87.5 Z"></path>
    </symbol>

    <symbol id="02n" viewBox="0 0 100 100">
        <title>02n</title>
        <path d="M85.0023392,51.1044834 C85.9526316,50.3978558 86.9150097,49.7033138 87.7760234,48.8424951 C90.3506823,46.2637427 92.3122807,43.1245614 93.5834308,39.51423 C93.9894737,38.3851852 93.7011696,37.1181287 92.8481481,36.2734893 C91.9994152,35.4206628 90.7405458,35.1323587 89.6077973,35.534308 C82.7079922,37.9709552 75.2436647,36.3140351 70.1348928,31.197076 C65.0179337,26.079922 63.3528265,18.619883 65.7976608,11.7241715 C66.1957115,10.5910331 65.911306,9.33216374 65.0584795,8.47933723 C64.2138402,7.63469786 62.9508772,7.34210526 61.8177388,7.74035088 C58.2033138,9.02339181 55.0682261,10.9807018 52.4933723,13.5555556 C45.9551657,20.08577 43.9204678,29.3450292 46.1621832,37.6865497 C37.731384,38.762768 30.1534113,43.2421053 25.1054581,50.1218324 C24.0861598,49.9756335 23.062768,49.9025341 22.0270955,49.9025341 C9.99005848,49.9025341 0.194736842,59.6978558 0.194736842,71.7350877 C0.194736842,83.7719298 9.99005848,93.5672515 22.0270955,93.5672515 C24.6953216,93.5672515 27.3066277,93.079922 29.7676413,92.1376218 C35.4122807,97.0596491 42.5923977,99.8050682 50.097271,99.8050682 C57.6103314,99.8050682 64.7820663,97.0596491 70.4269006,92.1376218 C72.8879142,93.079922 75.4992203,93.5672515 78.1674464,93.5672515 C90.2044834,93.5672515 99.9998051,83.7719298 99.9998051,71.7350877 C100,62.0978558 93.6808967,53.9920078 85.0023392,51.1044834 Z M56.9037037,17.9660819 C57.3992203,17.4625731 57.9311891,16.9955166 58.4916179,16.5569201 C58.0530214,23.5703704 60.5830409,30.4701754 65.7243665,35.6074074 C70.8658869,40.7487329 77.7654971,43.2746589 84.7791423,42.8401559 C82.0906433,46.2678363 78.3869396,48.3998051 74.4231969,49.3095517 C69.0869396,42.5356725 61.2450292,38.27154 52.5990253,37.577193 C50.2070175,30.9575049 51.6081871,23.2617934 56.9037037,17.9660819 Z M78.1676413,87.3294347 C74.8294347,87.3294347 71.7512671,86.2573099 69.2128655,84.4703704 C64.6360624,89.9853801 57.8214425,93.5672515 50.0974659,93.5672515 C42.3732943,93.5672515 35.5586745,89.9853801 30.9820663,84.4703704 C28.4479532,86.2573099 25.365692,87.3294347 22.0272904,87.3294347 C13.4136452,87.3294347 6.43274854,80.348538 6.43274854,71.7350877 C6.43274854,63.1214425 13.4136452,56.1405458 22.0272904,56.1405458 C24.1348928,56.1405458 26.1329435,56.5670565 27.9606238,57.3222222 C31.8959064,49.6506823 39.6077973,44.2820663 48.6842105,43.7660819 C49.1594542,43.7378168 49.6222222,43.6645224 50.0974659,43.6645224 C52.6152047,43.6645224 55.0315789,44.0584795 57.3099415,44.7528265 C60.3881092,45.6951267 63.1945419,47.2300195 65.6311891,49.2077973 C67.9582846,51.0962963 69.9076023,53.4109162 71.4424951,56.0101365 C71.7023392,56.4487329 71.9949318,56.862963 72.2302144,57.3218324 C74.0617934,56.5664717 76.0641326,56.1401559 78.1676413,56.1401559 C86.7812865,56.1401559 93.7621832,63.1210526 93.7621832,71.7346979 C93.7621832,80.3483431 86.7812865,87.3294347 78.1676413,87.3294347 Z"></path>
    </symbol>

    <symbol id="03d" viewBox="0 0 100 100">
        <title>03d</title>
        <path d="M78.125,31.25 C77.0875,31.25 76.0621094,31.3232422 75.040625,31.4697266 C69.2058594,23.5189453 59.9976562,18.75 50,18.75 C40.0023438,18.75 30.7984375,23.5189453 24.959375,31.4697266 C23.9378906,31.3232422 22.9125,31.25 21.875,31.25 C9.81445312,31.25 0,41.0644531 0,53.125 C0,65.1855469 9.81445312,75 21.875,75 C24.5484375,75 27.1648437,74.5117188 29.6306641,73.5677734 C35.2863281,78.4994141 42.4804688,81.25 50,81.25 C57.5277344,81.25 64.7134766,78.4994141 70.3693359,73.5677734 C72.8351562,74.5117188 75.4515625,75 78.125,75 C90.1855469,75 100,65.1855469 100,53.125 C100,41.0644531 90.1855469,31.25 78.125,31.25 Z M78.125,68.75 C74.7802734,68.75 71.6960938,67.6757812 69.1527344,65.8853516 C64.5671875,71.4109375 57.7390625,75 50,75 C42.2607422,75 35.4328125,71.4109375 30.8472656,65.8853516 C28.3082031,67.6757812 25.2197266,68.75 21.875,68.75 C13.2445312,68.75 6.25,61.7554687 6.25,53.125 C6.25,44.4945313 13.2445312,37.5 21.875,37.5 C23.9867188,37.5 25.9886719,37.93125 27.8199219,38.6880859 C31.9662109,30.5990234 40.2912109,25 50,25 C59.7087891,25 68.0339844,30.5990234 72.1759766,38.6880859 C74.0113281,37.93125 76.0173828,37.5 78.125,37.5 C86.7554688,37.5 93.75,44.4945313 93.75,53.125 C93.75,61.7554687 86.7554688,68.75 78.125,68.75 Z"></path>
    </symbol>

    <symbol id="03n" viewBox="0 0 100 100">
        <title>03n</title>
        <path d="M78.125,31.25 C77.0875,31.25 76.0621094,31.3232422 75.040625,31.4697266 C69.2058594,23.5189453 59.9976562,18.75 50,18.75 C40.0023438,18.75 30.7984375,23.5189453 24.959375,31.4697266 C23.9378906,31.3232422 22.9125,31.25 21.875,31.25 C9.81445312,31.25 0,41.0644531 0,53.125 C0,65.1855469 9.81445312,75 21.875,75 C24.5484375,75 27.1648437,74.5117188 29.6306641,73.5677734 C35.2863281,78.4994141 42.4804688,81.25 50,81.25 C57.5277344,81.25 64.7134766,78.4994141 70.3693359,73.5677734 C72.8351562,74.5117188 75.4515625,75 78.125,75 C90.1855469,75 100,65.1855469 100,53.125 C100,41.0644531 90.1855469,31.25 78.125,31.25 Z M78.125,68.75 C74.7802734,68.75 71.6960938,67.6757812 69.1527344,65.8853516 C64.5671875,71.4109375 57.7390625,75 50,75 C42.2607422,75 35.4328125,71.4109375 30.8472656,65.8853516 C28.3082031,67.6757812 25.2197266,68.75 21.875,68.75 C13.2445312,68.75 6.25,61.7554687 6.25,53.125 C6.25,44.4945313 13.2445312,37.5 21.875,37.5 C23.9867188,37.5 25.9886719,37.93125 27.8199219,38.6880859 C31.9662109,30.5990234 40.2912109,25 50,25 C59.7087891,25 68.0339844,30.5990234 72.1759766,38.6880859 C74.0113281,37.93125 76.0173828,37.5 78.125,37.5 C86.7554688,37.5 93.75,44.4945313 93.75,53.125 C93.75,61.7554687 86.7554688,68.75 78.125,68.75 Z"></path>
    </symbol>

    <symbol id="04d" viewBox="0 0 100 100">
        <title>04d</title>
        <path d="M100,36.8751953 C100,27.2722656 92.1875,19.4638672 82.5845703,19.4638672 C82.1166016,19.4638672 81.6527344,19.4841797 81.1888672,19.5207031 C76.6722656,13.8851562 69.8648437,10.540625 62.4998047,10.540625 C55.1388672,10.540625 48.3275391,13.8851562 43.8107422,19.5208984 C43.346875,19.4841797 42.8789062,19.4640625 42.4068359,19.4640625 C32.8125,19.4638672 25,27.2722656 25,36.8751953 C25,37.8802734 25.134375,38.8486328 25.2929688,39.8130859 C25.1871094,39.9513672 25.0609375,40.0775391 24.959375,40.2199219 C23.9380859,40.0734375 22.9126953,40.0001953 21.875,40.0001953 C9.81445312,40.0001953 0,49.8144531 0,61.875 C0,73.9357422 9.81445312,83.75 21.875,83.75 C24.5484375,83.75 27.1648437,83.2617187 29.6306641,82.3177734 C35.2863281,87.2494141 42.4804688,90 50,90 C57.5277344,90 64.7134766,87.2494141 70.3693359,82.3177734 C72.8351562,83.2617187 75.4515625,83.75 78.125,83.75 C90.1855469,83.75 100,73.9357422 100,61.875 C100,56.8578125 98.2339844,52.2884766 95.3777344,48.5939453 C98.2257812,45.4892578 100,41.4 100,36.8751953 Z M78.125,77.5 C74.7802734,77.5 71.6960938,76.4259766 69.1527344,74.6355469 C64.5669922,80.1611328 57.7390625,83.75 50,83.75 C42.2607422,83.75 35.4328125,80.1611328 30.8472656,74.6355469 C28.3082031,76.4259766 25.2199219,77.5 21.875,77.5 C13.2445312,77.5 6.25,70.5054687 6.25,61.875 C6.25,53.2445312 13.2445312,46.2501953 21.875,46.2501953 C23.9867188,46.2501953 25.9886719,46.6775391 27.8199219,47.4341797 C27.9296875,47.2267578 28.0640625,47.0435547 28.1738281,46.8441406 C29.2724609,44.8380859 30.6273438,42.9988281 32.2101562,41.3671875 C36.71875,36.6960937 42.9849609,33.75 50,33.75 C59.7087891,33.75 68.0339844,39.3488281 72.1759766,47.4339844 C73.2787109,46.9824219 74.4548828,46.6892578 75.6671875,46.4941406 L78.125,46.25 C80.5339844,46.25 82.7880859,46.8441406 84.8265625,47.8125 C87.0359375,48.8703125 88.9322266,50.4246094 90.4214844,52.3414062 C92.4722656,54.9822266 93.75,58.2699219 93.75,61.875 C93.75,70.5054687 86.7554688,77.5 78.125,77.5 Z M90.9300781,44.2236328 C87.3208984,41.5951172 82.9222656,40.0001953 78.125,40.0001953 C77.0875,40.0001953 76.0621094,40.0734375 75.040625,40.2199219 C69.2058594,32.2691406 59.9974609,27.5001953 50,27.5001953 C43.3349609,27.5001953 37.0484375,29.6568359 31.8480469,33.4248047 C33.3087891,28.9611328 37.4591797,25.7140625 42.4070313,25.7140625 C43.9207031,25.7140625 45.3488281,26.0191406 46.6550781,26.5601562 C49.6214844,20.7863281 55.5662109,16.790625 62.4998047,16.790625 C69.4333984,16.790625 75.3822266,20.7861328 78.3365234,26.5601562 C79.6507813,26.0191406 81.0871094,25.7140625 82.584375,25.7140625 C88.753125,25.7140625 93.7498047,30.7107422 93.7498047,36.8753906 C93.75,39.703125 92.6636719,42.2542969 90.9300781,44.2236328 Z"></path>
    </symbol>

    <symbol id="04n" viewBox="0 0 100 100">
        <title>04n</title>
        <path d="M100,36.8751953 C100,27.2722656 92.1875,19.4638672 82.5845703,19.4638672 C82.1166016,19.4638672 81.6527344,19.4841797 81.1888672,19.5207031 C76.6722656,13.8851563 69.8648437,10.540625 62.4998047,10.540625 C55.1388672,10.540625 48.3275391,13.8851563 43.8107422,19.5208984 C43.346875,19.4841797 42.8789062,19.4640625 42.4068359,19.4640625 C32.8125,19.4638672 25,27.2722656 25,36.8751953 C25,37.8802734 25.134375,38.8486328 25.2929688,39.8130859 C25.1871094,39.9513672 25.0609375,40.0775391 24.959375,40.2199219 C23.9380859,40.0734375 22.9126953,40.0001953 21.875,40.0001953 C9.81445312,40.0001953 0,49.8144531 0,61.875 C0,73.9357422 9.81445312,83.75 21.875,83.75 C24.5484375,83.75 27.1648437,83.2617188 29.6306641,82.3177734 C35.2863281,87.2494141 42.4804688,90 50,90 C57.5277344,90 64.7134766,87.2494141 70.3693359,82.3177734 C72.8351562,83.2617188 75.4515625,83.75 78.125,83.75 C90.1855469,83.75 100,73.9357422 100,61.875 C100,56.8578125 98.2339844,52.2884766 95.3777344,48.5939453 C98.2257812,45.4892578 100,41.4 100,36.8751953 Z M78.125,77.5 C74.7802734,77.5 71.6960938,76.4259766 69.1527344,74.6355469 C64.5669922,80.1611328 57.7390625,83.75 50,83.75 C42.2607422,83.75 35.4328125,80.1611328 30.8472656,74.6355469 C28.3082031,76.4259766 25.2199219,77.5 21.875,77.5 C13.2445312,77.5 6.25,70.5054688 6.25,61.875 C6.25,53.2445313 13.2445312,46.2501953 21.875,46.2501953 C23.9867188,46.2501953 25.9886719,46.6775391 27.8199219,47.4341797 C27.9296875,47.2267578 28.0640625,47.0435547 28.1738281,46.8441406 C29.2724609,44.8380859 30.6273438,42.9988281 32.2101562,41.3671875 C36.71875,36.6960938 42.9849609,33.75 50,33.75 C59.7087891,33.75 68.0339844,39.3488281 72.1759766,47.4339844 C73.2787109,46.9824219 74.4548828,46.6892578 75.6671875,46.4941406 L78.125,46.25 C80.5339844,46.25 82.7880859,46.8441406 84.8265625,47.8125 C87.0359375,48.8703125 88.9322266,50.4246094 90.4214844,52.3414063 C92.4722656,54.9822266 93.75,58.2699219 93.75,61.875 C93.75,70.5054688 86.7554688,77.5 78.125,77.5 Z M90.9300781,44.2236328 C87.3208984,41.5951172 82.9222656,40.0001953 78.125,40.0001953 C77.0875,40.0001953 76.0621094,40.0734375 75.040625,40.2199219 C69.2058594,32.2691406 59.9974609,27.5001953 50,27.5001953 C43.3349609,27.5001953 37.0484375,29.6568359 31.8480469,33.4248047 C33.3087891,28.9611328 37.4591797,25.7140625 42.4070313,25.7140625 C43.9207031,25.7140625 45.3488281,26.0191406 46.6550781,26.5601563 C49.6214844,20.7863281 55.5662109,16.790625 62.4998047,16.790625 C69.4333984,16.790625 75.3822266,20.7861328 78.3365234,26.5601563 C79.6507813,26.0191406 81.0871094,25.7140625 82.584375,25.7140625 C88.753125,25.7140625 93.7498047,30.7107422 93.7498047,36.8753906 C93.75,39.703125 92.6636719,42.2542969 90.9300781,44.2236328 Z"></path>
    </symbol>

    <symbol id="09d" viewBox="0 0 100 100">
        <title>09d</title>
        <path d="M78.125,12.5 C77.0875,12.5 76.0621094,12.5732422 75.040625,12.7197266 C69.2058594,4.76894531 59.9976562,0 50,0 C40.0023438,0 30.7984375,4.76894531 24.959375,12.7197266 C23.9378906,12.5732422 22.9125,12.5 21.875,12.5 C9.81445312,12.5 0,22.3144531 0,34.375 C0,46.4355469 9.81445312,56.25 21.875,56.25 C24.5484375,56.25 27.1648437,55.7617188 29.6306641,54.8177734 C35.2863281,59.7494141 42.4804688,62.5 50,62.5 C57.5277344,62.5 64.7134766,59.7494141 70.3693359,54.8177734 C72.8351562,55.7617188 75.4515625,56.25 78.125,56.25 C90.1855469,56.25 100,46.4355469 100,34.375 C100,22.3144531 90.1855469,12.5 78.125,12.5 Z M78.125,50 C74.7802734,50 71.6960938,48.9257812 69.1527344,47.1353516 C64.5671875,52.6611328 57.7390625,56.25 50,56.25 C42.2607422,56.25 35.4328125,52.6611328 30.8472656,47.1353516 C28.3082031,48.9257812 25.2197266,50 21.875,50 C13.2445312,50 6.25,43.0054687 6.25,34.375 C6.25,25.7445313 13.2445312,18.75 21.875,18.75 C23.9867188,18.75 25.9886719,19.18125 27.8199219,19.9380859 C31.9662109,11.8490234 40.2912109,6.25 50,6.25 C59.7087891,6.25 68.0339844,11.8490234 72.1759766,19.9380859 C74.0113281,19.18125 76.0173828,18.75 78.125,18.75 C86.7554688,18.75 93.75,25.7445313 93.75,34.375 C93.75,43.0054687 86.7554688,50 78.125,50 Z M43.9453125,93.75 C43.9453125,97.2046875 46.740625,100 50.1953125,100 C53.65,100 56.4453125,97.2046875 56.4453125,93.75 C56.4453125,90.2953125 50.1953125,81.25 50.1953125,81.25 C50.1953125,81.25 43.9453125,90.2953125 43.9453125,93.75 Z M68.75,87.5 C68.75,90.9546875 71.5453125,93.75 75,93.75 C78.4546875,93.75 81.25,90.9546875 81.25,87.5 C81.25,84.0453125 75,75 75,75 C75,75 68.75,84.0453125 68.75,87.5 Z M18.75,75 C18.75,78.4546875 21.5453125,81.25 25,81.25 C28.4546875,81.25 31.25,78.4546875 31.25,75 C31.25,71.5453125 25,62.5 25,62.5 C25,62.5 18.75,71.5453125 18.75,75 Z"></path>
    </symbol>

    <symbol id="09n" viewBox="0 0 100 100">
        <title>09n</title>
        <path d="M78.125,12.5 C77.0875,12.5 76.0621094,12.5732422 75.040625,12.7197266 C69.2058594,4.76894531 59.9976562,0 50,0 C40.0023438,0 30.7984375,4.76894531 24.959375,12.7197266 C23.9378906,12.5732422 22.9125,12.5 21.875,12.5 C9.81445312,12.5 0,22.3144531 0,34.375 C0,46.4355469 9.81445312,56.25 21.875,56.25 C24.5484375,56.25 27.1648437,55.7617188 29.6306641,54.8177734 C35.2863281,59.7494141 42.4804688,62.5 50,62.5 C57.5277344,62.5 64.7134766,59.7494141 70.3693359,54.8177734 C72.8351562,55.7617188 75.4515625,56.25 78.125,56.25 C90.1855469,56.25 100,46.4355469 100,34.375 C100,22.3144531 90.1855469,12.5 78.125,12.5 Z M78.125,50 C74.7802734,50 71.6960938,48.9257812 69.1527344,47.1353516 C64.5671875,52.6611328 57.7390625,56.25 50,56.25 C42.2607422,56.25 35.4328125,52.6611328 30.8472656,47.1353516 C28.3082031,48.9257812 25.2197266,50 21.875,50 C13.2445312,50 6.25,43.0054687 6.25,34.375 C6.25,25.7445313 13.2445312,18.75 21.875,18.75 C23.9867188,18.75 25.9886719,19.18125 27.8199219,19.9380859 C31.9662109,11.8490234 40.2912109,6.25 50,6.25 C59.7087891,6.25 68.0339844,11.8490234 72.1759766,19.9380859 C74.0113281,19.18125 76.0173828,18.75 78.125,18.75 C86.7554688,18.75 93.75,25.7445313 93.75,34.375 C93.75,43.0054687 86.7554688,50 78.125,50 Z M43.9453125,93.75 C43.9453125,97.2046875 46.740625,100 50.1953125,100 C53.65,100 56.4453125,97.2046875 56.4453125,93.75 C56.4453125,90.2953125 50.1953125,81.25 50.1953125,81.25 C50.1953125,81.25 43.9453125,90.2953125 43.9453125,93.75 Z M68.75,87.5 C68.75,90.9546875 71.5453125,93.75 75,93.75 C78.4546875,93.75 81.25,90.9546875 81.25,87.5 C81.25,84.0453125 75,75 75,75 C75,75 68.75,84.0453125 68.75,87.5 Z M18.75,75 C18.75,78.4546875 21.5453125,81.25 25,81.25 C28.4546875,81.25 31.25,78.4546875 31.25,75 C31.25,71.5453125 25,62.5 25,62.5 C25,62.5 18.75,71.5453125 18.75,75 Z"></path>
    </symbol>

    <symbol id="10d" viewBox="0 0 100 100">
        <title>10d</title>
        <path d="M78.125,18.75 C77.0875,18.75 76.0621094,18.8232422 75.040625,18.9697266 C69.2058594,11.0189453 59.9976562,6.25 50,6.25 C40.0023438,6.25 30.7984375,11.0189453 24.959375,18.9697266 C23.9378906,18.8232422 22.9125,18.75 21.875,18.75 C9.81445312,18.75 0,28.5644531 0,40.625 C0,52.6855469 9.81445312,62.5 21.875,62.5 C24.5484375,62.5 27.1648437,62.0117188 29.6306641,61.0677734 C35.2863281,65.9994141 42.4804688,68.75 50,68.75 C57.5277344,68.75 64.7134766,65.9994141 70.3693359,61.0677734 C72.8351562,62.0117188 75.4515625,62.5 78.125,62.5 C90.1855469,62.5 100,52.6855469 100,40.625 C100,28.5644531 90.1855469,18.75 78.125,18.75 Z M78.125,56.25 C74.7802734,56.25 71.6960938,55.1757812 69.1527344,53.3853516 C64.5671875,58.9111328 57.7390625,62.5 50,62.5 C42.2607422,62.5 35.4328125,58.9111328 30.8472656,53.3853516 C28.3082031,55.1757812 25.2197266,56.25 21.875,56.25 C13.2445312,56.25 6.25,49.2554687 6.25,40.625 C6.25,31.9945313 13.2445312,25 21.875,25 C23.9867188,25 25.9886719,25.43125 27.8199219,26.1880859 C31.9662109,18.0990234 40.2912109,12.5 50,12.5 C59.7087891,12.5 68.0339844,18.0990234 72.1759766,26.1880859 C74.0113281,25.43125 76.0173828,25 78.125,25 C86.7554688,25 93.75,31.9945313 93.75,40.625 C93.75,49.2554687 86.7554688,56.25 78.125,56.25 Z M43.75,87.5 C43.75,90.9546875 46.5453125,93.75 50,93.75 C53.4546875,93.75 56.25,90.9546875 56.25,87.5 C56.25,84.0453125 50,75 50,75 C50,75 43.75,84.0453125 43.75,87.5 Z"></path>
    </symbol>

    <symbol id="10n" viewBox="0 0 100 100">
        <title>10n</title>
        <path d="M78.125,18.75 C77.0875,18.75 76.0621094,18.8232422 75.040625,18.9697266 C69.2058594,11.0189453 59.9976562,6.25 50,6.25 C40.0023438,6.25 30.7984375,11.0189453 24.959375,18.9697266 C23.9378906,18.8232422 22.9125,18.75 21.875,18.75 C9.81445312,18.75 0,28.5644531 0,40.625 C0,52.6855469 9.81445312,62.5 21.875,62.5 C24.5484375,62.5 27.1648437,62.0117188 29.6306641,61.0677734 C35.2863281,65.9994141 42.4804688,68.75 50,68.75 C57.5277344,68.75 64.7134766,65.9994141 70.3693359,61.0677734 C72.8351562,62.0117188 75.4515625,62.5 78.125,62.5 C90.1855469,62.5 100,52.6855469 100,40.625 C100,28.5644531 90.1855469,18.75 78.125,18.75 Z M78.125,56.25 C74.7802734,56.25 71.6960938,55.1757812 69.1527344,53.3853516 C64.5671875,58.9111328 57.7390625,62.5 50,62.5 C42.2607422,62.5 35.4328125,58.9111328 30.8472656,53.3853516 C28.3082031,55.1757812 25.2197266,56.25 21.875,56.25 C13.2445312,56.25 6.25,49.2554687 6.25,40.625 C6.25,31.9945313 13.2445312,25 21.875,25 C23.9867188,25 25.9886719,25.43125 27.8199219,26.1880859 C31.9662109,18.0990234 40.2912109,12.5 50,12.5 C59.7087891,12.5 68.0339844,18.0990234 72.1759766,26.1880859 C74.0113281,25.43125 76.0173828,25 78.125,25 C86.7554688,25 93.75,31.9945313 93.75,40.625 C93.75,49.2554687 86.7554688,56.25 78.125,56.25 Z M43.75,87.5 C43.75,90.9546875 46.5453125,93.75 50,93.75 C53.4546875,93.75 56.25,90.9546875 56.25,87.5 C56.25,84.0453125 50,75 50,75 C50,75 43.75,84.0453125 43.75,87.5 Z"></path>
    </symbol>

    <symbol id="11d" viewBox="0 0 100 100">
        <title>11d</title>
        <path d="M37.5,75 L43.75,81.25 L37.5,100 L56.25,81.25 L50,75 L56.25,62.5 L37.5,75 Z M100,26.3345703 C100,16.7357422 92.1875,8.92753906 82.5845703,8.92753906 C82.1166016,8.92753906 81.6527344,8.94375 81.1888672,8.98027344 C76.6722656,3.34882813 69.8650391,0 62.5,0 C55.1390625,0 48.3277344,3.34882813 43.8109375,8.98027344 C43.3470703,8.94375 42.8791016,8.92753906 42.4070313,8.92753906 C32.8125,8.92753906 25,16.7359375 25,26.3345703 C25,27.3396484 25.134375,28.3121094 25.2929688,29.2724609 C25.1871094,29.4107422 25.0609375,29.5369141 24.959375,29.6792969 C23.9380859,29.5328125 22.9126953,29.4595703 21.875,29.4595703 C9.81445312,29.4595703 0,39.2740234 0,51.3345703 C0,63.3953125 9.81445312,73.2095703 21.875,73.2095703 C24.5484375,73.2095703 27.1648437,72.7214844 29.6306641,71.7773437 C29.8462891,71.9646484 30.1025391,72.0947266 30.3222656,72.2777344 L35.8519531,68.5912109 C34.0085938,67.2849609 32.2875,65.8324219 30.8470703,64.0990234 C28.3080078,65.8853516 25.2197266,66.9595703 21.8748047,66.9595703 C13.2443359,66.9595703 6.24980469,59.9691406 6.24980469,51.3345703 C6.24980469,42.7082031 13.2443359,35.7095703 21.8748047,35.7095703 C23.9865234,35.7095703 25.9884766,36.1410156 27.8197266,36.8976562 C27.9294922,36.6861328 28.0638672,36.5070312 28.1736328,36.3035156 C29.2722656,34.2974609 30.6271484,32.4623047 32.2099609,30.8265625 C36.7185547,26.159375 42.9847656,23.209375 49.9998047,23.209375 C59.7085938,23.209375 68.0337891,28.8083984 72.1757812,36.8974609 C73.2785156,36.4417969 74.4546875,36.1488281 75.6669922,35.9535156 L78.1248047,35.709375 C80.5337891,35.709375 82.7878906,36.3035156 84.8263672,37.271875 C87.0357422,38.3298828 88.9320313,39.8841797 90.4212891,41.8046875 C92.4720703,44.4455078 93.7498047,47.7292969 93.7498047,51.334375 C93.7498047,59.9689453 86.7552734,66.959375 78.1248047,66.959375 C74.7800781,66.959375 71.6958984,65.8851562 69.1525391,64.0988281 C66.4181641,67.3947266 62.8169922,69.8726562 58.7724609,71.4351562 L57.6046875,73.7667969 L61.1691406,77.33125 C64.5015625,76.0332031 67.6185547,74.1695313 70.3691406,71.7769531 C72.8349609,72.7210938 75.4513672,73.2091797 78.1248047,73.2091797 C90.1853516,73.2091797 99.9998047,63.3949219 99.9998047,51.3341797 C99.9998047,46.3212891 98.2337891,41.7476562 95.3775391,38.0529297 C98.2257812,34.9527344 100,30.8634766 100,26.3345703 Z M90.9300781,33.6832031 C87.3208984,31.0585938 82.9222656,29.4595703 78.125,29.4595703 C77.0875,29.4595703 76.0621094,29.5328125 75.040625,29.6792969 C69.2058594,21.7326172 59.9976562,16.9595703 50,16.9595703 C43.3349609,16.9595703 37.0484375,19.1201172 31.8480469,22.8880859 C33.3087891,18.4246094 37.4591797,15.1775391 42.4070313,15.1775391 C43.9207031,15.1775391 45.3488281,15.4826172 46.6550781,16.0238281 C49.6214844,10.2457031 55.5664062,6.25 62.5,6.25 C69.4335938,6.25 75.3824219,10.2457031 78.3367187,16.0238281 C79.6509766,15.4826172 81.0873047,15.1775391 82.5845703,15.1775391 C88.7533203,15.1775391 93.75,20.1742188 93.75,26.3345703 C93.75,29.1666016 92.6636719,31.7179687 90.9300781,33.6832031 Z"></path>
    </symbol>

    <symbol id="11n" viewBox="0 0 100 100">
        <title>11n</title>
        <path d="M37.5,75 L43.75,81.25 L37.5,100 L56.25,81.25 L50,75 L56.25,62.5 L37.5,75 Z M100,26.3345703 C100,16.7357422 92.1875,8.92753906 82.5845703,8.92753906 C82.1166016,8.92753906 81.6527344,8.94375 81.1888672,8.98027344 C76.6722656,3.34882813 69.8650391,0 62.5,0 C55.1390625,0 48.3277344,3.34882813 43.8109375,8.98027344 C43.3470703,8.94375 42.8791016,8.92753906 42.4070313,8.92753906 C32.8125,8.92753906 25,16.7359375 25,26.3345703 C25,27.3396484 25.134375,28.3121094 25.2929688,29.2724609 C25.1871094,29.4107422 25.0609375,29.5369141 24.959375,29.6792969 C23.9380859,29.5328125 22.9126953,29.4595703 21.875,29.4595703 C9.81445312,29.4595703 0,39.2740234 0,51.3345703 C0,63.3953125 9.81445312,73.2095703 21.875,73.2095703 C24.5484375,73.2095703 27.1648437,72.7214844 29.6306641,71.7773437 C29.8462891,71.9646484 30.1025391,72.0947266 30.3222656,72.2777344 L35.8519531,68.5912109 C34.0085938,67.2849609 32.2875,65.8324219 30.8470703,64.0990234 C28.3080078,65.8853516 25.2197266,66.9595703 21.8748047,66.9595703 C13.2443359,66.9595703 6.24980469,59.9691406 6.24980469,51.3345703 C6.24980469,42.7082031 13.2443359,35.7095703 21.8748047,35.7095703 C23.9865234,35.7095703 25.9884766,36.1410156 27.8197266,36.8976562 C27.9294922,36.6861328 28.0638672,36.5070312 28.1736328,36.3035156 C29.2722656,34.2974609 30.6271484,32.4623047 32.2099609,30.8265625 C36.7185547,26.159375 42.9847656,23.209375 49.9998047,23.209375 C59.7085938,23.209375 68.0337891,28.8083984 72.1757812,36.8974609 C73.2785156,36.4417969 74.4546875,36.1488281 75.6669922,35.9535156 L78.1248047,35.709375 C80.5337891,35.709375 82.7878906,36.3035156 84.8263672,37.271875 C87.0357422,38.3298828 88.9320313,39.8841797 90.4212891,41.8046875 C92.4720703,44.4455078 93.7498047,47.7292969 93.7498047,51.334375 C93.7498047,59.9689453 86.7552734,66.959375 78.1248047,66.959375 C74.7800781,66.959375 71.6958984,65.8851562 69.1525391,64.0988281 C66.4181641,67.3947266 62.8169922,69.8726562 58.7724609,71.4351562 L57.6046875,73.7667969 L61.1691406,77.33125 C64.5015625,76.0332031 67.6185547,74.1695313 70.3691406,71.7769531 C72.8349609,72.7210938 75.4513672,73.2091797 78.1248047,73.2091797 C90.1853516,73.2091797 99.9998047,63.3949219 99.9998047,51.3341797 C99.9998047,46.3212891 98.2337891,41.7476562 95.3775391,38.0529297 C98.2257812,34.9527344 100,30.8634766 100,26.3345703 Z M90.9300781,33.6832031 C87.3208984,31.0585938 82.9222656,29.4595703 78.125,29.4595703 C77.0875,29.4595703 76.0621094,29.5328125 75.040625,29.6792969 C69.2058594,21.7326172 59.9976562,16.9595703 50,16.9595703 C43.3349609,16.9595703 37.0484375,19.1201172 31.8480469,22.8880859 C33.3087891,18.4246094 37.4591797,15.1775391 42.4070313,15.1775391 C43.9207031,15.1775391 45.3488281,15.4826172 46.6550781,16.0238281 C49.6214844,10.2457031 55.5664062,6.25 62.5,6.25 C69.4335938,6.25 75.3824219,10.2457031 78.3367187,16.0238281 C79.6509766,15.4826172 81.0873047,15.1775391 82.5845703,15.1775391 C88.7533203,15.1775391 93.75,20.1742188 93.75,26.3345703 C93.75,29.1666016 92.6636719,31.7179687 90.9300781,33.6832031 Z"></path>
    </symbol>

    <symbol id="13n" viewBox="0 0 100 100">
        <title>13n</title>
        <path d="M63.6800781,86.6578125 L60.1644531,84.63125 C60.2703125,84.0210938 60.3515625,83.3986328 60.3515625,82.7515625 C60.3515625,82.1046875 60.2703125,81.4820312 60.15625,80.8716797 L63.6800781,78.8412109 C65.3240234,77.8808594 65.8853516,75.7691406 64.9414063,74.1333984 C63.9890625,72.4773438 61.8814453,71.9117187 60.2294922,72.8638672 L56.6771484,74.9146484 C55.7248047,74.1048828 54.6507813,73.4701172 53.4544922,73.0388672 L53.4544922,68.9576172 C53.4544922,67.0492187 51.9041016,65.5029297 49.9998047,65.5029297 C48.0955078,65.5029297 46.5494141,67.0492187 46.5494141,68.9576172 L46.5494141,73.0347656 C45.3529297,73.4621094 44.2748047,74.1048828 43.3226563,74.9146484 L39.7785156,72.8638672 C38.1224609,71.9117187 36.0105469,72.4732422 35.0583984,74.1292969 C34.10625,75.7732422 34.6798828,77.8890625 36.3279297,78.8414062 L39.8355469,80.8677734 C39.7214844,81.4822266 39.6482422,82.1048828 39.6482422,82.7517578 C39.6482422,83.3988281 39.7214844,84.0212891 39.8355469,84.6314453 L36.328125,86.6578125 C34.6759766,87.6099609 34.1064453,89.7339844 35.0585937,91.3820312 C36.0107422,93.0300781 38.1226562,93.5914062 39.7705078,92.6394531 L43.31875,90.6007812 C44.2707031,91.4064453 45.3492187,92.0412109 46.5496094,92.4683594 L46.5496094,96.5578125 C46.5496094,98.4619141 48.0957031,100 50,100 C51.9042969,100 53.4546875,98.4619141 53.4546875,96.5578125 L53.4546875,92.4683594 C54.6509766,92.0410156 55.7375,91.40625 56.6814453,90.5884766 L60.2296875,92.6392578 C61.8816406,93.5914062 63.9892578,93.0298828 64.9416016,91.3818359 C65.8935547,89.7339844 65.3320312,87.6220703 63.6800781,86.6578125 Z M50,86.2060547 C48.0957031,86.2060547 46.5453125,84.6556641 46.5453125,82.7513672 C46.5453125,80.8470703 48.0957031,79.3048828 50,79.3048828 C51.9042969,79.3048828 53.4505859,80.8470703 53.4505859,82.7513672 C53.4505859,84.6556641 51.9042969,86.2060547 50,86.2060547 Z M92.6105469,77.3925781 L90.2505859,76.7660156 C90.19375,76.0173828 90.0146484,75.3052734 89.6849609,74.6216797 L91.3980469,72.9085937 C92.2037109,72.1029297 92.1996094,70.8007812 91.3980469,70.0074219 C90.6005859,69.2058594 89.3066406,69.2017578 88.5009766,70.0074219 L86.7839844,71.7164063 C86.1083984,71.3990234 85.3882812,71.2160156 84.6435547,71.1548828 L84.0167969,68.7990234 C83.7240234,67.7085937 82.6007812,67.0533203 81.5023437,67.3462891 C80.4078125,67.6433594 79.7689453,68.7664063 80.0537109,69.8609375 L80.6804687,72.184375 C80.3710937,72.3960938 80.078125,72.6320312 79.8015625,72.9005859 C79.5330078,73.1773437 79.3050781,73.4701172 79.0933594,73.7714844 L76.7699219,73.1447266 C75.6753906,72.8519531 74.5441406,73.5111328 74.2511719,74.5974609 C73.9583984,75.6960938 74.6175781,76.8150391 75.6998047,77.1121094 L78.0435547,77.7427734 C78.1087891,78.4792969 78.2958984,79.1994141 78.6253906,79.8832031 L76.9042969,81.6042969 C76.1068359,82.4058594 76.1109375,83.6998047 76.9125,84.4972656 C77.7099609,85.2947266 79.0039062,85.3029297 79.8015625,84.5054687 L81.5265625,82.7802734 C82.2021484,83.1136719 82.9265625,83.3009766 83.6751953,83.3578125 L84.2935547,85.7056641 C84.5947266,86.8001953 85.7095703,87.4513672 86.8083984,87.1583984 C87.8988281,86.8654297 88.5578125,85.7425781 88.2650391,84.6355469 L87.6382812,82.3121094 C87.93125,82.1046875 88.2324219,81.8726562 88.5091797,81.6041016 C88.7777344,81.3314453 89.0056641,81.0302734 89.2169922,80.7292969 L91.5445312,81.3560547 C92.6390625,81.6490234 93.7662109,80.9939453 94.0550781,79.9074219 C94.3480469,78.8166016 93.7011719,77.69375 92.6105469,77.3925781 Z M85.6078125,78.6988281 C84.8021484,79.5044922 83.5041016,79.5003906 82.7025391,78.6988281 C81.9091797,77.9054687 81.9009766,76.6033203 82.7025391,75.7976563 C83.5041016,75.0001953 84.80625,75.0001953 85.6078125,75.7976563 C86.4013672,76.5992188 86.4013672,77.9052734 85.6078125,78.6988281 Z M23.2300781,66.8945312 L20.9107422,67.5171875 C20.6951172,67.2242188 20.4712891,66.9271484 20.1986328,66.6503906 C19.9220703,66.3818359 19.6291016,66.15 19.3238281,65.9423828 L19.9464844,63.6107422 C20.2394531,62.5162109 19.5882813,61.3890625 18.5060547,61.1001953 C17.4074219,60.8072266 16.284375,61.4583984 15.9914063,62.5488281 L15.3566406,64.9046875 C14.6121094,64.965625 13.9,65.1488281 13.2203125,65.4703125 L11.4992188,63.7572266 C10.6935547,62.9515625 9.39960938,62.9556641 8.60195313,63.7572266 C7.80039063,64.5587891 7.80039063,65.8568359 8.60195313,66.6583984 L10.3150391,68.3714844 C9.99355469,69.0550781 9.80644531,69.7753906 9.74941406,70.5158203 L7.39746094,71.1423828 C6.29882812,71.4435547 5.64765625,72.5583984 5.94082031,73.6570313 C6.23789063,74.7474609 7.3609375,75.3904297 8.45957031,75.1056641 L10.7789063,74.4748047 C10.9863281,74.7880859 11.2183594,75.08125 11.4992188,75.3539062 C11.7677734,75.6224609 12.0607422,75.8625 12.3660156,76.0619141 L11.7433594,78.3853516 C11.4503906,79.4839844 12.1015625,80.6152344 13.1917969,80.9082031 C14.290625,81.2011719 15.4054688,80.5501953 15.6984375,79.4554687 L16.3332031,77.1117187 C17.0777344,77.0507812 17.7980469,76.8634766 18.4816406,76.5378906 L20.1986328,78.2550781 C20.9962891,79.0605469 22.2902344,79.0443359 23.0958984,78.246875 C23.8892578,77.4535156 23.9015625,76.1554687 23.0958984,75.3539062 L21.3748047,73.6328125 C21.7044922,72.9570312 21.8998047,72.2289062 21.9486328,71.4841797 L24.3044922,70.8615234 C25.3908203,70.5644531 26.0419922,69.4455078 25.7490234,68.346875 C25.4558594,67.2609375 24.3328125,66.6097656 23.2300781,66.8945312 Z M17.2972656,72.4527344 C16.4957031,73.2542969 15.1976563,73.2542969 14.3919922,72.4527344 C13.5986328,71.6552734 13.5986328,70.3490234 14.3919922,69.5556641 C15.1976563,68.7582031 16.4957031,68.7582031 17.2972656,69.5556641 C18.0988281,70.353125 18.0908203,71.6552734 17.2972656,72.4527344 Z M100,34.375 C100,22.3144531 90.1855469,12.5 78.125,12.5 C77.0875,12.5 76.0621094,12.5732422 75.040625,12.7197266 C69.2058594,4.76894531 59.9976562,0 50,0 C40.0023438,0 30.7984375,4.76894531 24.959375,12.7197266 C23.9378906,12.5732422 22.9125,12.5 21.875,12.5 C9.81445312,12.5 0,22.3144531 0,34.375 C0,46.4355469 9.81445312,56.25 21.875,56.25 C24.5484375,56.25 27.1648437,55.7617188 29.6306641,54.8177734 C35.2863281,59.7494141 42.4804688,62.5 50,62.5 C57.5277344,62.5 64.7134766,59.7494141 70.3693359,54.8177734 C72.8351562,55.7617188 75.4515625,56.25 78.125,56.25 C90.1855469,56.25 100,46.4355469 100,34.375 Z M69.1527344,47.1353516 C64.5671875,52.6611328 57.7390625,56.25 50,56.25 C42.2607422,56.25 35.4328125,52.6611328 30.8472656,47.1353516 C28.3082031,48.9257812 25.2197266,50 21.875,50 C13.2445312,50 6.25,43.0054687 6.25,34.375 C6.25,25.7445313 13.2445312,18.75 21.875,18.75 C23.9867188,18.75 25.9886719,19.18125 27.8199219,19.9380859 C31.9662109,11.8490234 40.2912109,6.25 50,6.25 C59.7087891,6.25 68.0339844,11.8490234 72.1759766,19.9380859 C74.0113281,19.18125 76.0173828,18.75 78.125,18.75 C86.7554688,18.75 93.75,25.7445313 93.75,34.375 C93.75,43.0054687 86.7554688,50 78.125,50 C74.7802734,50 71.6960938,48.9257812 69.1527344,47.1353516 Z"></path>
    </symbol>

    <symbol id="13d" viewBox="0 0 100 100">
        <title>13d</title>
        <path d="M63.6800781,86.6578125 L60.1644531,84.63125 C60.2703125,84.0210938 60.3515625,83.3986328 60.3515625,82.7515625 C60.3515625,82.1046875 60.2703125,81.4820312 60.15625,80.8716797 L63.6800781,78.8412109 C65.3240234,77.8808594 65.8853516,75.7691406 64.9414063,74.1333984 C63.9890625,72.4773438 61.8814453,71.9117187 60.2294922,72.8638672 L56.6771484,74.9146484 C55.7248047,74.1048828 54.6507813,73.4701172 53.4544922,73.0388672 L53.4544922,68.9576172 C53.4544922,67.0492187 51.9041016,65.5029297 49.9998047,65.5029297 C48.0955078,65.5029297 46.5494141,67.0492187 46.5494141,68.9576172 L46.5494141,73.0347656 C45.3529297,73.4621094 44.2748047,74.1048828 43.3226563,74.9146484 L39.7785156,72.8638672 C38.1224609,71.9117187 36.0105469,72.4732422 35.0583984,74.1292969 C34.10625,75.7732422 34.6798828,77.8890625 36.3279297,78.8414062 L39.8355469,80.8677734 C39.7214844,81.4822266 39.6482422,82.1048828 39.6482422,82.7517578 C39.6482422,83.3988281 39.7214844,84.0212891 39.8355469,84.6314453 L36.328125,86.6578125 C34.6759766,87.6099609 34.1064453,89.7339844 35.0585937,91.3820312 C36.0107422,93.0300781 38.1226562,93.5914062 39.7705078,92.6394531 L43.31875,90.6007812 C44.2707031,91.4064453 45.3492187,92.0412109 46.5496094,92.4683594 L46.5496094,96.5578125 C46.5496094,98.4619141 48.0957031,100 50,100 C51.9042969,100 53.4546875,98.4619141 53.4546875,96.5578125 L53.4546875,92.4683594 C54.6509766,92.0410156 55.7375,91.40625 56.6814453,90.5884766 L60.2296875,92.6392578 C61.8816406,93.5914062 63.9892578,93.0298828 64.9416016,91.3818359 C65.8935547,89.7339844 65.3320312,87.6220703 63.6800781,86.6578125 Z M50,86.2060547 C48.0957031,86.2060547 46.5453125,84.6556641 46.5453125,82.7513672 C46.5453125,80.8470703 48.0957031,79.3048828 50,79.3048828 C51.9042969,79.3048828 53.4505859,80.8470703 53.4505859,82.7513672 C53.4505859,84.6556641 51.9042969,86.2060547 50,86.2060547 Z M92.6105469,77.3925781 L90.2505859,76.7660156 C90.19375,76.0173828 90.0146484,75.3052734 89.6849609,74.6216797 L91.3980469,72.9085937 C92.2037109,72.1029297 92.1996094,70.8007812 91.3980469,70.0074219 C90.6005859,69.2058594 89.3066406,69.2017578 88.5009766,70.0074219 L86.7839844,71.7164063 C86.1083984,71.3990234 85.3882812,71.2160156 84.6435547,71.1548828 L84.0167969,68.7990234 C83.7240234,67.7085937 82.6007812,67.0533203 81.5023437,67.3462891 C80.4078125,67.6433594 79.7689453,68.7664063 80.0537109,69.8609375 L80.6804687,72.184375 C80.3710937,72.3960938 80.078125,72.6320312 79.8015625,72.9005859 C79.5330078,73.1773437 79.3050781,73.4701172 79.0933594,73.7714844 L76.7699219,73.1447266 C75.6753906,72.8519531 74.5441406,73.5111328 74.2511719,74.5974609 C73.9583984,75.6960938 74.6175781,76.8150391 75.6998047,77.1121094 L78.0435547,77.7427734 C78.1087891,78.4792969 78.2958984,79.1994141 78.6253906,79.8832031 L76.9042969,81.6042969 C76.1068359,82.4058594 76.1109375,83.6998047 76.9125,84.4972656 C77.7099609,85.2947266 79.0039062,85.3029297 79.8015625,84.5054687 L81.5265625,82.7802734 C82.2021484,83.1136719 82.9265625,83.3009766 83.6751953,83.3578125 L84.2935547,85.7056641 C84.5947266,86.8001953 85.7095703,87.4513672 86.8083984,87.1583984 C87.8988281,86.8654297 88.5578125,85.7425781 88.2650391,84.6355469 L87.6382812,82.3121094 C87.93125,82.1046875 88.2324219,81.8726562 88.5091797,81.6041016 C88.7777344,81.3314453 89.0056641,81.0302734 89.2169922,80.7292969 L91.5445312,81.3560547 C92.6390625,81.6490234 93.7662109,80.9939453 94.0550781,79.9074219 C94.3480469,78.8166016 93.7011719,77.69375 92.6105469,77.3925781 Z M85.6078125,78.6988281 C84.8021484,79.5044922 83.5041016,79.5003906 82.7025391,78.6988281 C81.9091797,77.9054687 81.9009766,76.6033203 82.7025391,75.7976563 C83.5041016,75.0001953 84.80625,75.0001953 85.6078125,75.7976563 C86.4013672,76.5992188 86.4013672,77.9052734 85.6078125,78.6988281 Z M23.2300781,66.8945312 L20.9107422,67.5171875 C20.6951172,67.2242188 20.4712891,66.9271484 20.1986328,66.6503906 C19.9220703,66.3818359 19.6291016,66.15 19.3238281,65.9423828 L19.9464844,63.6107422 C20.2394531,62.5162109 19.5882813,61.3890625 18.5060547,61.1001953 C17.4074219,60.8072266 16.284375,61.4583984 15.9914063,62.5488281 L15.3566406,64.9046875 C14.6121094,64.965625 13.9,65.1488281 13.2203125,65.4703125 L11.4992188,63.7572266 C10.6935547,62.9515625 9.39960938,62.9556641 8.60195313,63.7572266 C7.80039063,64.5587891 7.80039063,65.8568359 8.60195313,66.6583984 L10.3150391,68.3714844 C9.99355469,69.0550781 9.80644531,69.7753906 9.74941406,70.5158203 L7.39746094,71.1423828 C6.29882812,71.4435547 5.64765625,72.5583984 5.94082031,73.6570313 C6.23789063,74.7474609 7.3609375,75.3904297 8.45957031,75.1056641 L10.7789063,74.4748047 C10.9863281,74.7880859 11.2183594,75.08125 11.4992188,75.3539062 C11.7677734,75.6224609 12.0607422,75.8625 12.3660156,76.0619141 L11.7433594,78.3853516 C11.4503906,79.4839844 12.1015625,80.6152344 13.1917969,80.9082031 C14.290625,81.2011719 15.4054688,80.5501953 15.6984375,79.4554687 L16.3332031,77.1117187 C17.0777344,77.0507812 17.7980469,76.8634766 18.4816406,76.5378906 L20.1986328,78.2550781 C20.9962891,79.0605469 22.2902344,79.0443359 23.0958984,78.246875 C23.8892578,77.4535156 23.9015625,76.1554687 23.0958984,75.3539062 L21.3748047,73.6328125 C21.7044922,72.9570312 21.8998047,72.2289062 21.9486328,71.4841797 L24.3044922,70.8615234 C25.3908203,70.5644531 26.0419922,69.4455078 25.7490234,68.346875 C25.4558594,67.2609375 24.3328125,66.6097656 23.2300781,66.8945312 Z M17.2972656,72.4527344 C16.4957031,73.2542969 15.1976563,73.2542969 14.3919922,72.4527344 C13.5986328,71.6552734 13.5986328,70.3490234 14.3919922,69.5556641 C15.1976563,68.7582031 16.4957031,68.7582031 17.2972656,69.5556641 C18.0988281,70.353125 18.0908203,71.6552734 17.2972656,72.4527344 Z M100,34.375 C100,22.3144531 90.1855469,12.5 78.125,12.5 C77.0875,12.5 76.0621094,12.5732422 75.040625,12.7197266 C69.2058594,4.76894531 59.9976562,0 50,0 C40.0023438,0 30.7984375,4.76894531 24.959375,12.7197266 C23.9378906,12.5732422 22.9125,12.5 21.875,12.5 C9.81445312,12.5 0,22.3144531 0,34.375 C0,46.4355469 9.81445312,56.25 21.875,56.25 C24.5484375,56.25 27.1648437,55.7617188 29.6306641,54.8177734 C35.2863281,59.7494141 42.4804688,62.5 50,62.5 C57.5277344,62.5 64.7134766,59.7494141 70.3693359,54.8177734 C72.8351562,55.7617188 75.4515625,56.25 78.125,56.25 C90.1855469,56.25 100,46.4355469 100,34.375 Z M69.1527344,47.1353516 C64.5671875,52.6611328 57.7390625,56.25 50,56.25 C42.2607422,56.25 35.4328125,52.6611328 30.8472656,47.1353516 C28.3082031,48.9257812 25.2197266,50 21.875,50 C13.2445312,50 6.25,43.0054687 6.25,34.375 C6.25,25.7445313 13.2445312,18.75 21.875,18.75 C23.9867188,18.75 25.9886719,19.18125 27.8199219,19.9380859 C31.9662109,11.8490234 40.2912109,6.25 50,6.25 C59.7087891,6.25 68.0339844,11.8490234 72.1759766,19.9380859 C74.0113281,19.18125 76.0173828,18.75 78.125,18.75 C86.7554688,18.75 93.75,25.7445313 93.75,34.375 C93.75,43.0054687 86.7554688,50 78.125,50 C74.7802734,50 71.6960938,48.9257812 69.1527344,47.1353516 Z"></path>
    </symbol>

    <symbol id="50d" viewBox="0 0 100 100">
        <title>50d</title>
        <path d="M50,18.5546875 C51.7251953,18.5546875 53.125,17.1548828 53.125,15.4296875 L53.125,9.1796875 C53.125,7.45449219 51.7251953,6.0546875 50,6.0546875 C48.2748047,6.0546875 46.875,7.45449219 46.875,9.1796875 L46.875,15.4296875 C46.875,17.1548828 48.2748047,18.5546875 50,18.5546875 Z M74.3042969,26.7904297 L78.7232422,22.3714844 C79.94375,21.1507813 79.94375,19.1732422 78.7232422,17.9525391 C77.5025391,16.7318359 75.525,16.7318359 74.3042969,17.9525391 L69.8853516,22.3714844 C68.6646484,23.5921875 68.6646484,25.5697266 69.8853516,26.7904297 C71.1060547,28.0111328 73.0835937,28.0111328 74.3042969,26.7904297 Z M12.5,49.8046875 L18.75,49.8046875 C20.4751953,49.8046875 21.875,48.4048828 21.875,46.6796875 C21.875,44.9544922 20.4751953,43.5546875 18.75,43.5546875 L12.5,43.5546875 C10.7748047,43.5546875 9.375,44.9544922 9.375,46.6796875 C9.375,48.4048828 10.7748047,49.8046875 12.5,49.8046875 Z M78.125,46.6796875 C78.125,48.4048828 79.5248047,49.8046875 81.25,49.8046875 L87.5,49.8046875 C89.2251953,49.8046875 90.625,48.4048828 90.625,46.6796875 C90.625,44.9544922 89.2251953,43.5546875 87.5,43.5546875 L81.25,43.5546875 C79.5248047,43.5546875 78.125,44.9544922 78.125,46.6796875 Z M25.6916016,26.7904297 C26.9125,28.0111328 28.8900391,28.0111328 30.1105469,26.7904297 C31.3314453,25.5697266 31.3314453,23.5921875 30.1105469,22.3714844 L25.6916016,17.9525391 C24.4708984,16.7318359 22.4935547,16.7318359 21.2726562,17.9525391 C20.0519531,19.1732422 20.0519531,21.1507813 21.2726562,22.3714844 L25.6916016,26.7904297 Z M28.4423828,49.8046875 L34.6923828,49.8046875 C34.4849609,48.7955078 34.375,47.7498047 34.375,46.6796875 C34.375,38.0492188 41.3695313,31.0546875 50,31.0546875 C58.6304687,31.0546875 65.625,38.0492188 65.625,46.6796875 C65.625,47.7498047 65.5152344,48.7955078 65.3076172,49.8046875 L71.5576172,49.8046875 C71.7123047,48.7751953 71.875,47.7498047 71.875,46.6796875 C71.875,34.6191406 62.0605469,24.8046875 50,24.8046875 C37.9394531,24.8046875 28.125,34.6191406 28.125,46.6796875 C28.125,47.7498047 28.2958984,48.7751953 28.4423828,49.8046875 Z M87.5,56.0546875 L12.5,56.0546875 C10.7748047,56.0546875 9.375,57.4544922 9.375,59.1796875 C9.375,60.9048828 10.7748047,62.3046875 12.5,62.3046875 L87.5,62.3046875 C89.2251953,62.3046875 90.625,60.9048828 90.625,59.1796875 C90.625,57.4544922 89.2251953,56.0546875 87.5,56.0546875 Z M87.5,68.5546875 L12.5,68.5546875 C10.7748047,68.5546875 9.375,69.9544922 9.375,71.6796875 C9.375,73.4048828 10.7748047,74.8046875 12.5,74.8046875 L87.5,74.8046875 C89.2251953,74.8046875 90.625,73.4048828 90.625,71.6796875 C90.625,69.9544922 89.2251953,68.5546875 87.5,68.5546875 Z M87.5,81.0546875 L12.5,81.0546875 C10.7748047,81.0546875 9.375,82.4544922 9.375,84.1796875 C9.375,85.9048828 10.7748047,87.3046875 12.5,87.3046875 L87.5,87.3046875 C89.2251953,87.3046875 90.625,85.9048828 90.625,84.1796875 C90.625,82.4544922 89.2251953,81.0546875 87.5,81.0546875 Z"></path>
    </symbol>

    <symbol id="50n" viewBox="0 0 100 100">
        <title>50n</title>
        <path d="M12.5,62.3048828 L87.5,62.3048828 C89.2251953,62.3048828 90.625,60.9050781 90.625,59.1798828 C90.625,57.4546875 89.2251953,56.0548828 87.5,56.0548828 L12.5,56.0548828 C10.7748047,56.0548828 9.375,57.4546875 9.375,59.1798828 C9.375,60.9050781 10.7748047,62.3048828 12.5,62.3048828 Z M87.5,68.5548828 L12.5,68.5548828 C10.7748047,68.5548828 9.375,69.9546875 9.375,71.6798828 C9.375,73.4050781 10.7748047,74.8048828 12.5,74.8048828 L87.5,74.8048828 C89.2251953,74.8048828 90.625,73.4050781 90.625,71.6798828 C90.625,69.9546875 89.2251953,68.5548828 87.5,68.5548828 Z M87.5,81.0548828 L12.5,81.0548828 C10.7748047,81.0548828 9.375,82.4546875 9.375,84.1798828 C9.375,85.9050781 10.7748047,87.3048828 12.5,87.3048828 L87.5,87.3048828 C89.2251953,87.3048828 90.625,85.9050781 90.625,84.1798828 C90.625,82.4546875 89.2251953,81.0548828 87.5,81.0548828 Z M40.0472656,49.8046875 C39.9822266,49.7396484 39.9005859,49.6988281 39.8357422,49.6337891 C32.5236328,42.3216797 32.5236328,30.4279297 39.8357422,23.1119141 C40.3361328,22.6154297 40.8650391,22.1435547 41.4267578,21.7041016 C40.9871094,28.7271484 43.5222656,35.6445313 48.6736328,40.7917969 C53.8248047,45.9472656 60.7419922,48.4740234 67.7652344,48.0345703 C67.2443359,48.6978516 66.6179687,49.2308594 66.0277344,49.8044922 L74.1373047,49.8044922 C75.1220703,48.2337891 75.9439453,46.5330078 76.5949219,44.7140625 C76.9896484,43.5707031 76.7007812,42.3052734 75.8462891,41.4587891 C75.0082031,40.6083984 73.7384766,40.3154297 72.5994141,40.7183594 C65.6900391,43.1595703 58.2154297,41.4955078 53.0925781,36.3726563 C47.9654297,31.2457031 46.2972656,23.7708984 48.7466797,16.8617188 C49.1535156,15.7265625 48.8605469,14.4650391 48.00625,13.6105469 C47.1597656,12.7601563 45.8943359,12.4712891 44.7591797,12.8740234 C41.1417969,14.1517578 37.9964844,16.1169922 35.4167969,18.6927734 C26.9775391,27.1322266 25.8748047,40.1326172 32.0433594,49.8046875 L40.0472656,49.8046875 Z"></path>
    </symbol>

</svg>